<?xml version="1.0" encoding="utf-8"?>
<!-- Generated by IcoMoon.io -->
<!DOCTYPE svg PUBLIC "-//W3C//DTD SVG 1.1//EN" "http://www.w3.org/Graphics/SVG/1.1/DTD/svg11.dtd">
<svg version="1.1" xmlns="http://www.w3.org/2000/svg" xmlns:xlink="http://www.w3.org/1999/xlink" width="512" height="512" viewBox="0 0 512 512">
<g>
</g>
	<path d="M306.176 259.993c-0.317-0.42-0.656-0.778-1.024-1.198-0.205-0.164-0.379-0.236-0.604-0.379l1.628 1.577z" fill="#ffffff" />
	<path d="M162.069 264.448c-0.43-0.481-0.798-0.88-1.208-1.362-0.286-0.185-0.542-0.276-0.85-0.481l2.058 1.843z" fill="#ffffff" />
	<path d="M453.858 264.97c-0.358-0.563-0.738-1.045-1.096-1.598-0.215-0.185-0.399-0.215-0.625-0.399l1.721 1.997z" fill="#ffffff" />
	<path d="M256 7.67c-137.165 0-248.32 111.207-248.32 248.34 0 137.165 111.155 248.32 248.32 248.32 137.144 0 248.32-111.155 248.32-248.32 0-137.134-111.175-248.34-248.32-248.34zM265.267 88.627c113.613 0 206.172 53.494 206.172 119.808h-206.172l-205.691 4.137c-0.522-1.566-0.522-3.102-0.522-4.126 0-66.325 92.559-119.818 206.213-119.818zM40.458 261.765c13.261 3.983 19.579-2.478 30.505-15.268 8.571-10.035 18.288-21.433 34.13-21.433 15.841 0.010 33.126 11.806 55.757 38.021 20.194 13.281 32.030 4.444 50.954-12.329 12.923-11.448 27.566-24.423 46.879-22.846 15.053 1.219 30.259 11.356 46.48 30.884 17.377 13.261 28.764 5.058 48.804-11.888 14.224-12.053 30.341-25.692 50.658-22.763 16.435 2.355 31.764 14.889 48.138 39.229 2.038 1.639 4.075 2.478 6.185 2.304 2.796-0.236 5.683-2.058 7.936-4.956l16.343 12.697c-5.796 7.445-13.978 12.124-22.457 12.861-8.1 0.738-15.862-1.997-22.457-7.916l-0.983-0.88-0.738-1.096c-12.923-19.599-24.678-30.279-34.898-31.764-11.1-1.597-22.416 7.977-34.345 18.063-18.462 15.596-43.735 37.017-75.561 12.002l-0.901-0.717-0.738-0.86c-12.636-15.565-23.777-23.808-33.127-24.546-10.517-0.839-20.214 7.731-31.447 17.705-17.787 15.739-42.127 37.335-77.2 13.476l-1.137-0.778-0.901-1.065c-22.681-26.563-34.959-32.144-41.246-32.144-5.878 0-10.864 5.345-18.381 14.172-10.722 12.524-25.395 29.716-52.234 21.678l5.98-19.845zM441.62 410.532c-10.803 10.26-361.472 25.2-376.894-5.14-15.954-30.361-13.373-37.56-10.823-61.204 134.215 0 393.892-1.536 402.616 0 9.277 2.058-0.502 52.962-14.899 66.345zM256 325.673c-122.358 0-222.638-6.185-222.638-13.342 0-7.219 100.28-12.902 222.638-12.902 122.88 0 222.649 5.683 222.649 12.902-0.010 7.158-99.769 13.342-222.649 13.342z" fill="#ffffff" />
</svg>
